<svg  width="100%" height="100%" viewBox="0 0 50 50" fill="none" xmlns="http://www.w3.org/2000/svg">
<path d="M34 25C34 20.0294 29.9706 16 25 16C20.0294 16 16 20.0294 16 25C16 29.9706 20.0294 34 25 34C29.9706 34 34 29.9706 34 25Z" fill="#4F40FB"/>
<path d="M34 25C34 20.0294 29.9706 16 25 16C20.0294 16 16 20.0294 16 25C16 29.9706 20.0294 34 25 34C29.9706 34 34 29.9706 34 25Z" stroke="#E8E3E3" stroke-width="4"/>
<path d="M41 25C41 16.1634 33.8366 9 25 9C16.1634 9 9 16.1634 9 25C9 33.8366 16.1634 41 25 41C33.8366 41 41 33.8366 41 25Z" stroke="#E8E3E3" stroke-width="4"/>
<path d="M48 25C48 12.2975 37.7025 2 25 2C12.2975 2 2 12.2975 2 25C2 37.7025 12.2975 48 25 48C37.7025 48 48 37.7025 48 25Z" stroke="#E8E3E3" stroke-width="4"/>
</svg>
